<?xml version="1.0" standalone="no"?><!-- Generator: Gravit.io --><svg xmlns="http://www.w3.org/2000/svg" xmlns:xlink="http://www.w3.org/1999/xlink" style="isolation:isolate" viewBox="0 0 800 800" width="800" height="800"><defs><clipPath id="_clipPath_hH9hsbFKz6wLdEbK9r7GkY8j1QIJJyGj"><rect width="800" height="800"/></clipPath></defs><g clip-path="url(#_clipPath_hH9hsbFKz6wLdEbK9r7GkY8j1QIJJyGj)"><circle vector-effect="non-scaling-stroke" cx="400" cy="400" r="400" fill="rgb(107,184,255)"/><path d=" M 636.932 210.736 C 655.072 192.999 644.188 190.983 637.738 190.983 C 631.288 190.983 622.42 200.658 608.311 214.364 C 570.014 252.257 507.531 289.344 427.311 345.781 C 426.908 274.429 428.923 202.674 376.115 202.674 C 323.306 202.674 249.939 269.188 245.505 276.041 C 237.039 288.135 249.939 290.554 251.955 288.941 C 270.498 249.032 387.805 184.13 398.286 255.079 C 403.124 288.135 402.721 322.4 402.318 361.099 C 314.035 423.986 224.14 500.175 160.447 588.458 C 150.369 602.164 151.578 609.017 158.431 609.017 C 164.075 609.017 173.347 604.179 183.022 588.458 C 235.024 507.028 318.066 437.692 402.721 376.418 C 401.511 437.288 399.899 494.128 404.333 513.478 C 419.652 584.426 496.647 569.511 555.502 446.157 C 560.34 436.079 551.874 437.288 548.649 444.141 C 514.787 522.346 452.304 567.899 433.761 498.965 C 427.311 474.375 426.505 417.133 427.714 361.099 C 522.447 293.375 606.698 240.164 636.932 210.736 Z " fill="rgb(231,65,36)"/></g></svg>